<svg width="1440" height="720" viewBox="0 0 1440 720" fill="none" xmlns="http://www.w3.org/2000/svg">
<g clip-path="url(#clip0_1080_2033)">
<g opacity="0.25">
<line y1="-1" x2="833.071" y2="-1" transform="matrix(0.498878 0.866672 -0.872008 0.489491 507 -2)" stroke="white" stroke-width="2"/>
<line y1="-1" x2="833.071" y2="-1" transform="matrix(0.498878 0.866672 -0.872008 0.489491 524.359 -2)" stroke="white" stroke-width="2"/>
<line y1="-1" x2="833.071" y2="-1" transform="matrix(0.498878 0.866672 -0.872008 0.489491 541.719 -2)" stroke="white" stroke-width="2"/>
<line y1="-1" x2="833.071" y2="-1" transform="matrix(0.498878 0.866672 -0.872008 0.489491 559.078 -2)" stroke="white" stroke-width="2"/>
<line y1="-1" x2="833.071" y2="-1" transform="matrix(0.498878 0.866672 -0.872008 0.489491 576.437 -2)" stroke="white" stroke-width="2"/>
<line y1="-1" x2="833.071" y2="-1" transform="matrix(0.498878 0.866672 -0.872008 0.489491 593.797 -2)" stroke="white" stroke-width="2"/>
<line y1="-1" x2="833.071" y2="-1" transform="matrix(0.498878 0.866672 -0.872008 0.489491 611.156 -2)" stroke="white" stroke-width="2"/>
<line y1="-1" x2="833.071" y2="-1" transform="matrix(0.498878 0.866672 -0.872008 0.489491 628.515 -2)" stroke="white" stroke-width="2"/>
<line y1="-1" x2="833.071" y2="-1" transform="matrix(0.498878 0.866672 -0.872008 0.489491 645.875 -2)" stroke="white" stroke-width="2"/>
<line y1="-1" x2="833.071" y2="-1" transform="matrix(0.498878 0.866672 -0.872008 0.489491 663.234 -2)" stroke="white" stroke-width="2"/>
<line y1="-1" x2="833.071" y2="-1" transform="matrix(0.498878 0.866672 -0.872008 0.489491 680.593 -2)" stroke="white" stroke-width="2"/>
<line y1="-1" x2="833.071" y2="-1" transform="matrix(0.498878 0.866672 -0.872008 0.489491 697.952 -2)" stroke="white" stroke-width="2"/>
<line y1="-1" x2="833.071" y2="-1" transform="matrix(0.498878 0.866672 -0.872008 0.489491 715.311 -2)" stroke="white" stroke-width="2"/>
<line y1="-1" x2="833.071" y2="-1" transform="matrix(0.498878 0.866672 -0.872008 0.489491 732.671 -2)" stroke="white" stroke-width="2"/>
<line y1="-1" x2="833.071" y2="-1" transform="matrix(0.498878 0.866672 -0.872008 0.489491 750.03 -2)" stroke="white" stroke-width="2"/>
<line y1="-1" x2="833.071" y2="-1" transform="matrix(0.498878 0.866672 -0.872008 0.489491 767.389 -2)" stroke="white" stroke-width="2"/>
<line y1="-1" x2="833.071" y2="-1" transform="matrix(0.498878 0.866672 -0.872008 0.489491 784.748 -2)" stroke="white" stroke-width="2"/>
<line y1="-1" x2="833.071" y2="-1" transform="matrix(0.498878 0.866672 -0.872008 0.489491 802.108 -2)" stroke="white" stroke-width="2"/>
<line y1="-1" x2="833.071" y2="-1" transform="matrix(0.498878 0.866672 -0.872008 0.489491 819.467 -2)" stroke="white" stroke-width="2"/>
<line y1="-1" x2="833.071" y2="-1" transform="matrix(0.498878 0.866672 -0.872008 0.489491 836.826 -2)" stroke="white" stroke-width="2"/>
<line y1="-1" x2="833.071" y2="-1" transform="matrix(0.498878 0.866672 -0.872008 0.489491 854.185 -2)" stroke="white" stroke-width="2"/>
<line y1="-1" x2="833.071" y2="-1" transform="matrix(0.498878 0.866672 -0.872008 0.489491 871.545 -2)" stroke="white" stroke-width="2"/>
<line y1="-1" x2="833.071" y2="-1" transform="matrix(0.498878 0.866672 -0.872008 0.489491 888.904 -2)" stroke="white" stroke-width="2"/>
<line y1="-1" x2="833.071" y2="-1" transform="matrix(0.498878 0.866672 -0.872008 0.489491 906.263 -2)" stroke="white" stroke-width="2"/>
<line y1="-1" x2="833.071" y2="-1" transform="matrix(0.498878 0.866672 -0.872008 0.489491 923.622 -2)" stroke="white" stroke-width="2"/>
<line y1="-1" x2="833.071" y2="-1" transform="matrix(0.498878 0.866672 -0.872008 0.489491 940.982 -2)" stroke="white" stroke-width="2"/>
<line y1="-1" x2="833.071" y2="-1" transform="matrix(0.498878 0.866672 -0.872008 0.489491 958.341 -2)" stroke="white" stroke-width="2"/>
<line y1="-1" x2="833.071" y2="-1" transform="matrix(0.498878 0.866672 -0.872008 0.489491 975.7 -2)" stroke="white" stroke-width="2"/>
<line y1="-1" x2="833.071" y2="-1" transform="matrix(0.498878 0.866672 -0.872008 0.489491 993.059 -2)" stroke="white" stroke-width="2"/>
<line y1="-1" x2="833.071" y2="-1" transform="matrix(0.498878 0.866672 -0.872008 0.489491 1010.42 -2)" stroke="white" stroke-width="2"/>
<line y1="-1" x2="833.071" y2="-1" transform="matrix(0.498878 0.866672 -0.872008 0.489491 1027.78 -2)" stroke="white" stroke-width="2"/>
<line y1="-1" x2="833.071" y2="-1" transform="matrix(0.498878 0.866672 -0.872008 0.489491 1045.14 -2)" stroke="white" stroke-width="2"/>
<line y1="-1" x2="833.071" y2="-1" transform="matrix(0.498878 0.866672 -0.872008 0.489491 1062.5 -2)" stroke="white" stroke-width="2"/>
<line y1="-1" x2="833.071" y2="-1" transform="matrix(0.498878 0.866672 -0.872008 0.489491 1079.86 -2)" stroke="white" stroke-width="2"/>
<line y1="-1" x2="833.071" y2="-1" transform="matrix(0.498878 0.866672 -0.872008 0.489491 1097.21 -2)" stroke="white" stroke-width="2"/>
<line y1="-1" x2="833.071" y2="-1" transform="matrix(0.498878 0.866672 -0.872008 0.489491 1114.57 -2)" stroke="white" stroke-width="2"/>
<line y1="-1" x2="833.071" y2="-1" transform="matrix(0.498878 0.866672 -0.872008 0.489491 1131.93 -2)" stroke="white" stroke-width="2"/>
<line y1="-1" x2="833.071" y2="-1" transform="matrix(0.498878 0.866672 -0.872008 0.489491 1149.29 -2)" stroke="white" stroke-width="2"/>
<line y1="-1" x2="833.071" y2="-1" transform="matrix(0.498878 0.866672 -0.872008 0.489491 1166.65 -2)" stroke="white" stroke-width="2"/>
<line y1="-1" x2="833.071" y2="-1" transform="matrix(0.498878 0.866672 -0.872008 0.489491 1184.01 -2)" stroke="white" stroke-width="2"/>
<line y1="-1" x2="833.071" y2="-1" transform="matrix(0.498878 0.866672 -0.872008 0.489491 1201.37 -2)" stroke="white" stroke-width="2"/>
<line y1="-1" x2="833.071" y2="-1" transform="matrix(0.498878 0.866672 -0.872008 0.489491 1218.73 -2)" stroke="white" stroke-width="2"/>
<line y1="-1" x2="833.071" y2="-1" transform="matrix(0.498878 0.866672 -0.872008 0.489491 1236.09 -2)" stroke="white" stroke-width="2"/>
<line y1="-1" x2="833.071" y2="-1" transform="matrix(0.498878 0.866672 -0.872008 0.489491 1253.45 -2)" stroke="white" stroke-width="2"/>
<line y1="-1" x2="833.071" y2="-1" transform="matrix(0.498878 0.866672 -0.872008 0.489491 1270.81 -2)" stroke="white" stroke-width="2"/>
<line y1="-1" x2="833.071" y2="-1" transform="matrix(0.498878 0.866672 -0.872008 0.489491 1288.17 -2)" stroke="white" stroke-width="2"/>
<line y1="-1" x2="833.071" y2="-1" transform="matrix(0.498878 0.866672 -0.872008 0.489491 1305.53 -2)" stroke="white" stroke-width="2"/>
<line y1="-1" x2="833.071" y2="-1" transform="matrix(0.498878 0.866672 -0.872008 0.489491 1322.88 -2)" stroke="white" stroke-width="2"/>
<line y1="-1" x2="833.071" y2="-1" transform="matrix(0.498878 0.866672 -0.872008 0.489491 1340.24 -2)" stroke="white" stroke-width="2"/>
<line y1="-1" x2="833.071" y2="-1" transform="matrix(0.498878 0.866672 -0.872008 0.489491 1357.6 -2)" stroke="white" stroke-width="2"/>
<line y1="-1" x2="833.071" y2="-1" transform="matrix(0.498878 0.866672 -0.872008 0.489491 1374.96 -2)" stroke="white" stroke-width="2"/>
<line y1="-1" x2="833.071" y2="-1" transform="matrix(0.498878 0.866672 -0.872008 0.489491 1392.32 -2)" stroke="white" stroke-width="2"/>
<line y1="-1" x2="833.071" y2="-1" transform="matrix(0.498878 0.866672 -0.872008 0.489491 1409.68 -2)" stroke="white" stroke-width="2"/>
<line y1="-1" x2="833.071" y2="-1" transform="matrix(0.498878 0.866672 -0.872008 0.489491 1427.04 -2)" stroke="white" stroke-width="2"/>
</g>
</g>
<defs>
<clipPath id="clip0_1080_2033">
<rect width="1440" height="720" fill="white"/>
</clipPath>
</defs>
</svg>
